<svg width="169" height="48" viewBox="0 0 169 48" fill="none" xmlns="http://www.w3.org/2000/svg">
<rect x="0.5" y="0.5" width="168" height="47" rx="23.5" stroke="#EBF2F0"/>
<path d="M42.72 31H41.248C40.848 31 40.544 30.744 40.48 30.328L38.832 18.616C38.8 18.44 38.768 18.28 38.768 18.184C38.768 18.024 38.896 17.8 39.184 17.8H39.744C40 17.8 40.128 17.944 40.16 18.184L41.648 29.368C41.68 29.608 41.792 29.736 42 29.736C42.208 29.736 42.32 29.608 42.352 29.368L43.856 18.184C43.888 17.944 44.048 17.8 44.288 17.8H44.832C45.104 17.8 45.232 18.024 45.232 18.184C45.232 18.28 45.2 18.44 45.168 18.616L43.488 30.328C43.424 30.744 43.12 31 42.72 31ZM47.1196 30.6V21.24C47.1196 21.016 47.2956 20.84 47.5196 20.84H48.0636C48.2876 20.84 48.4636 21.016 48.4636 21.24V30.6C48.4636 30.824 48.2876 31 48.0636 31H47.5196C47.2956 31 47.1196 30.824 47.1196 30.6ZM47.0716 18.84V18.2C47.0716 17.976 47.2476 17.8 47.4716 17.8H48.1116C48.3356 17.8 48.5116 17.976 48.5116 18.2V18.84C48.5116 19.064 48.3356 19.24 48.1116 19.24H47.4716C47.2476 19.24 47.0716 19.064 47.0716 18.84ZM51.8981 23.816V24.744C51.8981 24.984 52.0101 25.096 52.2501 25.096H54.2181C54.4261 25.096 54.5861 24.936 54.5861 24.728V23.816C54.5861 23.16 54.4901 22.68 54.2021 22.376C53.9461 22.104 53.6101 21.976 53.2421 21.976C52.8741 21.976 52.5381 22.104 52.2821 22.376C51.9941 22.68 51.8981 23.16 51.8981 23.816ZM55.5141 26.312H52.2501C52.0421 26.312 51.8981 26.456 51.8981 26.664V28.024C51.8981 28.68 51.9941 29.16 52.2821 29.464C52.5381 29.736 52.8741 29.864 53.2421 29.864C53.6101 29.864 53.9461 29.736 54.2021 29.464C54.4901 29.16 54.5861 28.68 54.5861 28.024V27.896C54.5861 27.672 54.7621 27.496 54.9861 27.496H55.5301C55.7541 27.496 55.9301 27.672 55.9301 27.896V28.136C55.9301 29.144 55.6741 29.768 55.2581 30.248C54.7941 30.776 54.1061 31.112 53.2421 31.112C52.3781 31.112 51.6901 30.776 51.2261 30.248C50.8101 29.768 50.5541 29.144 50.5541 28.136V23.704C50.5541 22.696 50.8101 22.072 51.2261 21.592C51.6901 21.064 52.3781 20.728 53.2421 20.728C54.1061 20.728 54.7941 21.064 55.2581 21.592C55.6741 22.072 55.9301 22.696 55.9301 23.704V25.896C55.9301 26.12 55.7381 26.312 55.5141 26.312ZM67.0026 21.24V28.248C67.0026 29.32 66.6186 29.944 66.2186 30.376C65.7706 30.856 65.0986 31.112 64.5386 31.112C63.9786 31.112 63.4666 31.016 62.9706 30.712C62.8746 30.648 62.7626 30.568 62.6666 30.488C62.5866 30.424 62.5226 30.392 62.4426 30.392C62.3626 30.392 62.2826 30.424 62.2026 30.488C62.1066 30.568 62.0106 30.632 61.9306 30.696C61.4186 31 60.8906 31.112 60.3306 31.112C59.7706 31.112 59.0506 30.856 58.6026 30.376C58.1866 29.944 57.8666 29.32 57.8666 28.248V21.24C57.8666 21.016 58.0426 20.84 58.2666 20.84H58.8106C59.0346 20.84 59.2106 21.016 59.2106 21.24V28.136C59.2106 28.744 59.3066 29.192 59.5786 29.48C59.8186 29.736 60.1386 29.848 60.4906 29.848C60.8426 29.848 61.1626 29.736 61.4026 29.48C61.6746 29.192 61.7546 28.744 61.7546 28.136V21.24C61.7546 21.016 61.9306 20.84 62.1546 20.84H62.6986C62.9226 20.84 63.0986 21.016 63.0986 21.24V28.136C63.0986 28.744 63.2106 29.192 63.4826 29.48C63.7226 29.736 64.0426 29.848 64.3946 29.848C64.7466 29.848 65.0666 29.736 65.3066 29.48C65.5786 29.192 65.6586 28.744 65.6586 28.136V21.24C65.6586 21.016 65.8346 20.84 66.0586 20.84H66.4746C66.6986 20.84 67.0026 21.016 67.0026 21.24ZM77.852 20.68V30.6C77.852 30.824 77.676 31 77.452 31H76.892C76.668 31 76.476 30.824 76.476 30.6V20.68C76.476 20.056 76.364 19.608 76.092 19.32C75.852 19.048 75.516 18.936 75.164 18.936C74.812 18.936 74.492 19.048 74.236 19.32C73.948 19.608 73.868 20.056 73.868 20.68V30.6C73.868 30.824 73.692 31 73.468 31H72.908C72.684 31 72.492 30.824 72.492 30.6V18.28C72.492 18.056 72.556 17.944 72.668 17.864C72.764 17.784 72.876 17.752 73.004 17.752C73.164 17.752 73.308 17.816 73.452 17.912L73.516 17.96C73.644 18.056 73.724 18.088 73.868 18.088C73.996 18.088 74.188 17.96 74.524 17.848C74.78 17.768 75.1 17.688 75.42 17.688C75.9 17.688 76.428 17.832 76.988 18.328C77.036 18.392 77.116 18.424 77.212 18.424C77.292 18.424 77.372 18.392 77.468 18.328C78.028 17.832 78.636 17.688 79.324 17.688C79.9 17.688 80.636 17.944 81.084 18.44C81.5 18.888 81.836 19.528 81.836 20.632V30.6C81.836 30.824 81.66 31 81.436 31H80.876C80.652 31 80.46 30.824 80.46 30.6V20.68C80.46 20.056 80.348 19.608 80.076 19.32C79.836 19.048 79.5 18.936 79.148 18.936C78.796 18.936 78.476 19.048 78.22 19.32C77.932 19.608 77.852 20.056 77.852 20.68ZM85.1481 23.816V28.024C85.1481 28.68 85.2441 29.16 85.5321 29.464C85.7881 29.736 86.1241 29.864 86.4921 29.864C86.8601 29.864 87.1961 29.736 87.4521 29.464C87.7401 29.16 87.8361 28.68 87.8361 28.024V23.816C87.8361 23.16 87.7401 22.68 87.4521 22.376C87.1961 22.104 86.8601 21.976 86.4921 21.976C86.1241 21.976 85.7881 22.104 85.5321 22.376C85.2441 22.68 85.1481 23.16 85.1481 23.816ZM89.1801 23.704V28.136C89.1801 29.144 88.9241 29.768 88.5081 30.248C88.0441 30.776 87.3561 31.112 86.4921 31.112C85.6281 31.112 84.9401 30.776 84.4761 30.248C84.0601 29.768 83.8041 29.144 83.8041 28.136V23.704C83.8041 22.696 84.0601 22.072 84.4761 21.592C84.9401 21.064 85.6281 20.728 86.4921 20.728C87.3561 20.728 88.0441 21.064 88.5081 21.592C88.9241 22.072 89.1801 22.696 89.1801 23.704ZM92.4763 23.848V30.6C92.4763 30.824 92.3003 31 92.0763 31H91.5323C91.3083 31 91.1323 30.824 91.1323 30.6V21.32C91.1323 21.096 91.1963 20.984 91.2923 20.904C91.3883 20.824 91.5003 20.792 91.6283 20.792C91.7883 20.792 91.9323 20.872 92.0603 20.968L92.1243 21.016C92.2523 21.112 92.3323 21.144 92.4763 21.144C92.6043 21.144 92.8123 21.048 93.1323 20.936C93.4203 20.84 93.7563 20.776 94.0923 20.776H94.3802C94.6203 20.776 94.7963 20.92 94.7963 21.176V21.704C94.7963 21.928 94.6203 22.104 94.3963 22.104H93.9323C93.3883 22.104 93.0523 22.216 92.8123 22.472C92.5563 22.76 92.4763 23.224 92.4763 23.848ZM97.3981 23.816V24.744C97.3981 24.984 97.5101 25.096 97.7501 25.096H99.7181C99.9261 25.096 100.086 24.936 100.086 24.728V23.816C100.086 23.16 99.9901 22.68 99.7021 22.376C99.4461 22.104 99.1101 21.976 98.7421 21.976C98.3741 21.976 98.0381 22.104 97.7821 22.376C97.4941 22.68 97.3981 23.16 97.3981 23.816ZM101.014 26.312H97.7501C97.5421 26.312 97.3981 26.456 97.3981 26.664V28.024C97.3981 28.68 97.4941 29.16 97.7821 29.464C98.0381 29.736 98.3741 29.864 98.7421 29.864C99.1101 29.864 99.4461 29.736 99.7021 29.464C99.9901 29.16 100.086 28.68 100.086 28.024V27.896C100.086 27.672 100.262 27.496 100.486 27.496H101.03C101.254 27.496 101.43 27.672 101.43 27.896V28.136C101.43 29.144 101.174 29.768 100.758 30.248C100.294 30.776 99.6061 31.112 98.7421 31.112C97.8781 31.112 97.1901 30.776 96.7261 30.248C96.3101 29.768 96.0541 29.144 96.0541 28.136V23.704C96.0541 22.696 96.3101 22.072 96.7261 21.592C97.1901 21.064 97.8781 20.728 98.7421 20.728C99.6061 20.728 100.294 21.064 100.758 21.592C101.174 22.072 101.43 22.696 101.43 23.704V25.896C101.43 26.12 101.238 26.312 101.014 26.312Z" fill="#1F2020"/>
<path d="M127.667 23.9998H114.333" stroke="#1F2020" stroke-width="1.25" stroke-linecap="round" stroke-linejoin="round"/>
<path d="M123.5 28.1666C123.5 28.1666 127.667 25.0979 127.667 23.9999C127.667 22.9019 123.5 19.8333 123.5 19.8333" stroke="#1F2020" stroke-width="1.25" stroke-linecap="round" stroke-linejoin="round"/>
</svg>
