<svg width="164" height="48" viewBox="0 0 164 48" fill="none" xmlns="http://www.w3.org/2000/svg">
<rect x="20.5742" y="20.5714" width="6.85714" height="6.85714" fill="#0C111D"/>
<rect opacity="0.6" x="20.5742" y="27.4286" width="6.85714" height="6.85714" fill="#0C111D"/>
<rect opacity="0.32" x="27.4258" y="27.4286" width="6.85714" height="6.85714" fill="#0C111D"/>
<rect opacity="0.07" x="34.2852" y="27.4285" width="6.85714" height="6.85714" fill="#0C111D"/>
<rect opacity="0.32" x="13.7148" y="27.4285" width="6.85714" height="6.85714" fill="#0C111D"/>
<rect opacity="0.07" x="6.85742" y="27.4285" width="6.85714" height="6.85714" fill="#0C111D"/>
<rect opacity="0.32" x="20.5742" y="34.2857" width="6.85714" height="6.85714" fill="#0C111D"/>
<rect opacity="0.07" x="13.7148" y="34.2857" width="6.85714" height="6.85714" fill="#0C111D"/>
<rect opacity="0.07" x="27.4258" y="34.2857" width="6.85714" height="6.85714" fill="#0C111D"/>
<rect opacity="0.07" x="20.5742" y="41.1428" width="6.85714" height="6.85714" fill="#0C111D"/>
<rect opacity="0.6" x="13.7148" y="20.5714" width="6.85714" height="6.85714" fill="#0C111D"/>
<rect opacity="0.32" x="6.85742" y="20.5714" width="6.85714" height="6.85714" fill="#0C111D"/>
<rect opacity="0.07" y="20.5714" width="6.85714" height="6.85714" fill="#0C111D"/>
<rect opacity="0.6" x="27.4258" y="20.5714" width="6.85714" height="6.85714" fill="#0C111D"/>
<rect opacity="0.32" x="34.2852" y="20.5714" width="6.85714" height="6.85714" fill="#0C111D"/>
<rect opacity="0.07" x="41.1426" y="20.5714" width="6.85714" height="6.85714" fill="#0C111D"/>
<rect opacity="0.6" x="20.5742" y="13.7142" width="6.85714" height="6.85714" fill="#0C111D"/>
<rect opacity="0.32" x="13.7148" y="13.7142" width="6.85714" height="6.85714" fill="#0C111D"/>
<rect opacity="0.07" x="13.7148" y="6.85712" width="6.85714" height="6.85714" fill="#0C111D"/>
<rect opacity="0.07" x="6.85742" y="13.7142" width="6.85714" height="6.85714" fill="#0C111D"/>
<rect opacity="0.32" x="27.4258" y="13.7142" width="6.85714" height="6.85714" fill="#0C111D"/>
<rect opacity="0.07" x="27.4258" y="6.85712" width="6.85714" height="6.85714" fill="#0C111D"/>
<rect opacity="0.07" x="34.2852" y="13.7142" width="6.85714" height="6.85714" fill="#0C111D"/>
<rect opacity="0.32" x="20.5742" y="6.85712" width="6.85714" height="6.85714" fill="#0C111D"/>
<rect opacity="0.07" x="20.5742" width="6.85714" height="6.85714" fill="#0C111D"/>
<path d="M56 33V14.462H63.982C69.78 14.462 72.276 16.802 72.276 20.858C72.276 24.836 69.624 27.228 64.242 27.202H59.744V33H56ZM64.008 17.686H59.744V23.978H64.112C67.102 23.978 68.454 22.99 68.454 20.832C68.454 18.622 67.024 17.686 64.008 17.686Z" fill="#0C111D"/>
<path d="M77.8479 33H73.9479V18.05H77.8479V33Z" fill="#0C111D"/>
<path d="M79.4676 25.512C79.4676 20.494 83.0036 17.634 87.9696 17.634C92.8316 17.634 95.9256 19.844 96.3676 24.186V24.212H92.3116V24.16C91.9736 21.898 90.5176 20.806 87.9956 20.806C85.1096 20.806 83.3936 22.418 83.3936 25.512V25.72C83.3936 28.606 84.9536 30.192 87.9696 30.192C90.6476 30.192 91.9996 29.048 92.3376 26.76V26.734H96.3676V26.786C96.0296 31.128 93.0656 33.442 87.8916 33.442C82.1976 33.442 79.4676 30.608 79.4676 25.746V25.512Z" fill="#0C111D"/>
<path d="M99.8167 21.378H96.3847V18.05H100.155C100.155 18.05 100.181 14.566 100.155 14.02H103.379V18.05H108.293V21.378H103.379V25.824C103.379 26.942 103.483 27.748 103.613 28.294C103.925 29.334 104.835 29.568 106.733 29.568H108.293V33H105.745C101.039 33 99.8167 31.284 99.8167 26.474V21.378Z" fill="#0C111D"/>
<path d="M108.77 25.616C108.77 20.598 112.332 17.634 117.324 17.634C119.196 17.634 120.73 17.972 121.952 18.674C124.396 20.078 125.644 22.444 125.644 25.33V26.916H112.462C112.852 29.178 114.412 30.374 117.35 30.374C119.508 30.374 120.704 29.75 121.302 28.58H125.462C124.292 31.83 121.432 33.442 117.142 33.442C112.202 33.442 108.77 31.284 108.77 25.85V25.616ZM112.514 24.056H121.874C121.536 21.794 120.106 20.598 117.402 20.598C114.62 20.598 113.008 21.872 112.514 24.056Z" fill="#0C111D"/>
<path d="M131.094 33H127.272V13.084H131.094V33Z" fill="#0C111D"/>
<path d="M131.908 33L139.708 14.462H143.66L151.616 33H147.69L146 28.892H137.498L135.886 33H131.908ZM138.746 25.746H144.7L141.684 18.362L138.746 25.746Z" fill="#0C111D"/>
<path d="M156.251 17.842H152.169V14.462H163.921V17.842H159.865V29.464H163.921V33H152.169V29.464H156.251V17.842Z" fill="#0C111D"/>
<path d="M78.47 13.88C78.47 15.2662 77.3462 16.39 75.96 16.39C74.5738 16.39 73.45 15.2662 73.45 13.88C73.45 12.4938 74.5738 11.37 75.96 11.37C77.3462 11.37 78.47 12.4938 78.47 13.88Z" fill="#0C111D"/>
</svg>
