<svg width="64" height="64" viewBox="0 0 64 64" fill="none" xmlns="http://www.w3.org/2000/svg">
<rect width="64" height="64" rx="32" fill="#045746"/>
<path d="M42.0005 39.3336C42.0005 41.1745 40.5081 42.6669 38.6672 42.6669C36.8263 42.6669 35.3339 41.1745 35.3339 39.3336C35.3339 37.4926 36.8263 36.0002 38.6672 36.0002C40.5081 36.0002 42.0005 37.4926 42.0005 39.3336Z" stroke="white" stroke-width="2.33333"/>
<path d="M28.6665 39.3336C28.6665 41.1745 27.1741 42.6669 25.3332 42.6669C23.4922 42.6669 21.9998 41.1745 21.9998 39.3336C21.9998 37.4926 23.4922 36.0002 25.3332 36.0002C27.1741 36.0002 28.6665 37.4926 28.6665 39.3336Z" stroke="white" stroke-width="2.33333"/>
<path d="M35.333 39.3332H28.6663M41.9997 39.3332H43.0173C43.3105 39.3332 43.4571 39.3333 43.5803 39.3179C44.4889 39.2047 45.2045 38.4891 45.3177 37.5806C45.333 37.4574 45.333 37.3107 45.333 37.0175V33.3333C45.333 28.5468 41.4529 24.6666 36.6663 24.6666M35.9997 36.6666V25.3333C35.9997 23.4476 35.9997 22.5048 35.4139 21.919C34.8281 21.3333 33.8853 21.3333 31.9997 21.3333H22.6663C20.7807 21.3333 19.8379 21.3333 19.2521 21.919C18.6663 22.5048 18.6663 23.4476 18.6663 25.3333V35.9999C18.6663 37.246 18.6663 37.8691 18.9343 38.3332C19.1098 38.6372 19.3623 38.8898 19.6663 39.0652C20.1304 39.3332 20.7535 39.3332 21.9997 39.3332" stroke="white" stroke-width="2.33333" stroke-linecap="round" stroke-linejoin="round"/>
<path d="M24.6661 25.3333V30.6663M29.9995 25.3333V30.6663" stroke="white" stroke-width="2.33333" stroke-linecap="round" stroke-linejoin="round"/>
</svg>
