<svg width="24" height="24" viewBox="0 0 24 24" fill="none" xmlns="http://www.w3.org/2000/svg">
<path d="M2.5 11.9999C2.5 7.5216 2.5 5.28243 3.89124 3.89118C5.28249 2.49994 7.52166 2.49994 12 2.49994C16.4784 2.49994 18.7175 2.49994 20.1088 3.89118C21.5 5.28243 21.5 7.5216 21.5 11.9999C21.5 16.4782 21.5 18.7174 20.1088 20.1087C18.7175 21.4999 16.4784 21.4999 12 21.4999C7.52166 21.4999 5.28249 21.4999 3.89124 20.1087C2.5 18.7174 2.5 16.4782 2.5 11.9999Z" stroke="#E6EEED" stroke-width="1.5" stroke-linecap="round" stroke-linejoin="round"/>
<path d="M7 16.9999L11.1936 12.8064M11.1936 12.8064L7 6.99994H9.77778L12.8065 11.1934M11.1936 12.8064L14.2222 16.9999H17L12.8065 11.1934M17 6.99994L12.8065 11.1934" stroke="#E6EEED" stroke-width="1.5" stroke-linecap="round" stroke-linejoin="round"/>
</svg>
