<svg width="24" height="24" viewBox="0 0 24 24" fill="none" xmlns="http://www.w3.org/2000/svg">
<path d="M2.5 11.9999C2.5 7.5216 2.5 5.28243 3.89124 3.89118C5.28249 2.49994 7.52166 2.49994 12 2.49994C16.4783 2.49994 18.7175 2.49994 20.1088 3.89118C21.5 5.28243 21.5 7.5216 21.5 11.9999C21.5 16.4782 21.5 18.7174 20.1088 20.1087C18.7175 21.4999 16.4783 21.4999 12 21.4999C7.52166 21.4999 5.28249 21.4999 3.89124 20.1087C2.5 18.7174 2.5 16.4782 2.5 11.9999Z" stroke="#E6EEED" stroke-width="1.5" stroke-linejoin="round"/>
<path d="M10.5359 11.0075C9.71585 10.8916 7.84666 11.0834 6.93011 12.7782C6.01355 14.4729 6.9373 16.2368 7.51374 16.9069C8.08298 17.5338 9.89226 18.721 11.8114 17.5619C12.2871 17.2746 12.8797 17.0603 13.552 14.8153L13.4738 5.98145C13.3441 6.95419 14.4186 9.23575 17.478 9.5057" stroke="#E6EEED" stroke-width="1.5" stroke-linecap="round" stroke-linejoin="round"/>
</svg>
