<svg width="157" height="48" viewBox="0 0 157 48" fill="none" xmlns="http://www.w3.org/2000/svg">
<rect x="1.1" y="0.6" width="154.8" height="46.8" rx="6.6" fill="white"/>
<rect x="1.1" y="0.6" width="154.8" height="46.8" rx="6.6" stroke="#A6A6A6" stroke-width="1.2"/>
<path fill-rule="evenodd" clip-rule="evenodd" d="M31.4226 24.6967C31.4488 22.661 32.5161 20.7805 34.2505 19.7143C33.1513 18.1445 31.3764 17.185 29.4611 17.125C27.446 16.9135 25.4924 18.3308 24.4656 18.3308C23.4189 18.3308 21.8379 17.146 20.1354 17.1811C17.8954 17.2534 15.8577 18.4961 14.7679 20.4545C12.4471 24.4726 14.1782 30.3779 16.4013 33.6258C17.5136 35.2162 18.8135 36.9928 20.5145 36.9298C22.1789 36.8607 22.8006 35.8684 24.8098 35.8684C26.8003 35.8684 27.3835 36.9298 29.119 36.8897C30.905 36.8607 32.0303 35.2922 33.1036 33.6867C33.9027 32.5535 34.5177 31.301 34.9257 29.9757C32.8044 29.0785 31.4251 27 31.4226 24.6967Z" fill="black"/>
<path fill-rule="evenodd" clip-rule="evenodd" d="M28.1446 14.989C29.1184 13.82 29.5982 12.3174 29.482 10.8003C27.9942 10.9566 26.6199 11.6676 25.6329 12.7918C24.6583 13.901 24.1646 15.3521 24.2605 16.8255C25.7682 16.841 27.1998 16.1642 28.1446 14.989Z" fill="black"/>
<path d="M51.875 16.6001H49.4511V8.74555H51.9824C52.7443 8.74555 53.3963 8.90279 53.9383 9.21728C54.4804 9.52922 54.8959 9.97794 55.1848 10.5634C55.4737 11.1464 55.6182 11.8444 55.6182 12.6575C55.6182 13.4757 55.4724 14.1801 55.181 14.7707C54.8895 15.3588 54.4651 15.8113 53.9077 16.1284C53.3503 16.4429 52.6727 16.6001 51.875 16.6001ZM50.4023 15.7563H51.8136C52.4631 15.7563 53.0013 15.6311 53.4283 15.3805C53.8552 15.1299 54.1736 14.7733 54.3832 14.3105C54.5929 13.8477 54.6977 13.2967 54.6977 12.6575C54.6977 12.0234 54.5942 11.4775 54.3871 11.0198C54.18 10.5596 53.8706 10.2068 53.4589 9.96132C53.0473 9.71331 52.5347 9.5893 51.921 9.5893H50.4023V15.7563ZM59.7001 16.7228C59.1683 16.7228 58.7016 16.5963 58.3002 16.3431C57.9014 16.09 57.5894 15.7359 57.3644 15.2808C57.142 14.8257 57.0308 14.2938 57.0308 13.6853C57.0308 13.0717 57.142 12.536 57.3644 12.0784C57.5894 11.6207 57.9014 11.2653 58.3002 11.0122C58.7016 10.759 59.1683 10.6325 59.7001 10.6325C60.2319 10.6325 60.6972 10.759 61.0961 11.0122C61.4975 11.2653 61.8095 11.6207 62.0319 12.0784C62.2569 12.536 62.3694 13.0717 62.3694 13.6853C62.3694 14.2938 62.2569 14.8257 62.0319 15.2808C61.8095 15.7359 61.4975 16.09 61.0961 16.3431C60.6972 16.5963 60.2319 16.7228 59.7001 16.7228ZM59.7001 15.9098C60.1041 15.9098 60.4364 15.8062 60.6972 15.5991C60.958 15.392 61.1511 15.1197 61.2764 14.7822C61.4016 14.4447 61.4643 14.0791 61.4643 13.6853C61.4643 13.2916 61.4016 12.9247 61.2764 12.5846C61.1511 12.2446 60.958 11.9697 60.6972 11.76C60.4364 11.5504 60.1041 11.4456 59.7001 11.4456C59.2961 11.4456 58.9637 11.5504 58.7029 11.76C58.4421 11.9697 58.2491 12.2446 58.1238 12.5846C57.9985 12.9247 57.9359 13.2916 57.9359 13.6853C57.9359 14.0791 57.9985 14.4447 58.1238 14.7822C58.2491 15.1197 58.4421 15.392 58.7029 15.5991C58.9637 15.8062 59.2961 15.9098 59.7001 15.9098ZM65.1013 16.6001L63.3064 10.7092H64.2576L65.5309 15.2194H65.5922L66.8502 10.7092H67.8167L69.0593 15.2041H69.1206L70.3939 10.7092H71.3451L69.5502 16.6001H68.6604L67.3718 12.0745H67.2797L65.9911 16.6001H65.1013ZM73.6628 13.0563V16.6001H72.7577V10.7092H73.6321V11.6296H73.7088C73.8469 11.3305 74.0565 11.0902 74.3378 10.9086C74.619 10.7245 74.9821 10.6325 75.427 10.6325C75.8258 10.6325 76.1748 10.7143 76.474 10.8779C76.7731 11.039 77.0058 11.2845 77.172 11.6143C77.3382 11.9416 77.4213 12.3558 77.4213 12.8569V16.6001H76.5162V12.9183C76.5162 12.4555 76.396 12.095 76.1557 11.8367C75.9153 11.5759 75.5855 11.4456 75.1662 11.4456C74.8773 11.4456 74.619 11.5082 74.3915 11.6335C74.1665 11.7588 73.9888 11.9416 73.8584 12.1819C73.728 12.4223 73.6628 12.7137 73.6628 13.0563ZM80.1963 8.74555V16.6001H79.2912V8.74555H80.1963ZM84.4633 16.7228C83.9315 16.7228 83.4649 16.5963 83.0635 16.3431C82.6646 16.09 82.3527 15.7359 82.1277 15.2808C81.9052 14.8257 81.794 14.2938 81.794 13.6853C81.794 13.0717 81.9052 12.536 82.1277 12.0784C82.3527 11.6207 82.6646 11.2653 83.0635 11.0122C83.4649 10.759 83.9315 10.6325 84.4633 10.6325C84.9951 10.6325 85.4605 10.759 85.8593 11.0122C86.2608 11.2653 86.5727 11.6207 86.7951 12.0784C87.0201 12.536 87.1326 13.0717 87.1326 13.6853C87.1326 14.2938 87.0201 14.8257 86.7951 15.2808C86.5727 15.7359 86.2608 16.09 85.8593 16.3431C85.4605 16.5963 84.9951 16.7228 84.4633 16.7228ZM84.4633 15.9098C84.8673 15.9098 85.1997 15.8062 85.4605 15.5991C85.7213 15.392 85.9143 15.1197 86.0396 14.7822C86.1649 14.4447 86.2275 14.0791 86.2275 13.6853C86.2275 13.2916 86.1649 12.9247 86.0396 12.5846C85.9143 12.2446 85.7213 11.9697 85.4605 11.76C85.1997 11.5504 84.8673 11.4456 84.4633 11.4456C84.0593 11.4456 83.7269 11.5504 83.4662 11.76C83.2054 11.9697 83.0123 12.2446 82.887 12.5846C82.7617 12.9247 82.6991 13.2916 82.6991 13.6853C82.6991 14.0791 82.7617 14.4447 82.887 14.7822C83.0123 15.1197 83.2054 15.392 83.4662 15.5991C83.7269 15.8062 84.0593 15.9098 84.4633 15.9098ZM90.4638 16.7382C90.0905 16.7382 89.7517 16.6679 89.4475 16.5272C89.1432 16.384 88.9016 16.1782 88.7226 15.9098C88.5436 15.6387 88.4541 15.3115 88.4541 14.9279C88.4541 14.5904 88.5206 14.3169 88.6536 14.1072C88.7865 13.895 88.9642 13.7288 89.1867 13.6086C89.4091 13.4884 89.6546 13.399 89.923 13.3402C90.194 13.2788 90.4663 13.2302 90.7399 13.1944C91.0979 13.1484 91.3881 13.1139 91.6105 13.0909C91.8355 13.0653 91.9992 13.0231 92.1014 12.9643C92.2063 12.9055 92.2587 12.8032 92.2587 12.6575V12.6268C92.2587 12.2484 92.1551 11.9544 91.948 11.7447C91.7435 11.535 91.4328 11.4302 91.0161 11.4302C90.584 11.4302 90.2452 11.5248 89.9997 11.714C89.7543 11.9032 89.5817 12.1052 89.482 12.32L88.6229 12.0132C88.7763 11.6552 88.9808 11.3765 89.2365 11.1771C89.4948 10.9751 89.776 10.8345 90.0803 10.7552C90.3871 10.6734 90.6888 10.6325 90.9854 10.6325C91.1746 10.6325 91.3919 10.6555 91.6374 10.7015C91.8854 10.745 92.1244 10.8357 92.3546 10.9738C92.5872 11.1119 92.7803 11.3203 92.9337 11.599C93.0871 11.8777 93.1638 12.2509 93.1638 12.7188V16.6001H92.2587V15.8024H92.2127C92.1513 15.9302 92.049 16.067 91.9058 16.2127C91.7627 16.3585 91.5722 16.4825 91.3344 16.5848C91.0966 16.687 90.8064 16.7382 90.4638 16.7382ZM90.6019 15.9251C90.9598 15.9251 91.2615 15.8548 91.507 15.7142C91.755 15.5735 91.9416 15.392 92.0669 15.1696C92.1948 14.9471 92.2587 14.7132 92.2587 14.4677V13.6393C92.2203 13.6853 92.136 13.7275 92.0056 13.7659C91.8777 13.8017 91.7294 13.8336 91.5607 13.8617C91.3945 13.8873 91.2321 13.9103 91.0736 13.9308C90.9176 13.9487 90.7911 13.964 90.6939 13.9768C90.4587 14.0075 90.2388 14.0573 90.0342 14.1264C89.8323 14.1929 89.6686 14.2938 89.5433 14.4294C89.4206 14.5623 89.3592 14.7438 89.3592 14.974C89.3592 15.2884 89.4756 15.5262 89.7083 15.6873C89.9435 15.8458 90.2413 15.9251 90.6019 15.9251ZM97.2562 16.7228C96.7653 16.7228 96.332 16.5988 95.9561 16.3508C95.5803 16.1002 95.2862 15.7474 95.074 15.2923C94.8618 14.8346 94.7557 14.2938 94.7557 13.67C94.7557 13.0512 94.8618 12.5143 95.074 12.0592C95.2862 11.6041 95.5815 11.2525 95.9599 11.0045C96.3384 10.7565 96.7756 10.6325 97.2716 10.6325C97.6551 10.6325 97.9581 10.6964 98.1805 10.8242C98.4055 10.9495 98.5768 11.0927 98.6945 11.2538C98.8146 11.4123 98.908 11.5427 98.9744 11.645H99.0511V8.74555H99.9562V16.6001H99.0818V15.695H98.9744C98.908 15.8024 98.8134 15.9379 98.6906 16.1015C98.5679 16.2626 98.3928 16.4071 98.1652 16.5349C97.9376 16.6602 97.6347 16.7228 97.2562 16.7228ZM97.379 15.9098C97.742 15.9098 98.0489 15.8152 98.2994 15.6259C98.55 15.4342 98.7405 15.1696 98.8709 14.8321C99.0013 14.492 99.0665 14.0995 99.0665 13.6546C99.0665 13.2149 99.0026 12.8301 98.8747 12.5002C98.7469 12.1679 98.5577 11.9096 98.3071 11.7255C98.0565 11.5389 97.7472 11.4456 97.379 11.4456C96.9955 11.4456 96.6759 11.544 96.4202 11.7409C96.167 11.9352 95.9766 12.1998 95.8487 12.5348C95.7234 12.8671 95.6608 13.2404 95.6608 13.6546C95.6608 14.074 95.7247 14.4549 95.8526 14.7975C95.983 15.1376 96.1747 15.4086 96.4278 15.6106C96.6835 15.81 97.0006 15.9098 97.379 15.9098ZM107.602 16.7228C107.07 16.7228 106.604 16.5963 106.202 16.3431C105.804 16.09 105.492 15.7359 105.267 15.2808C105.044 14.8257 104.933 14.2938 104.933 13.6853C104.933 13.0717 105.044 12.536 105.267 12.0784C105.492 11.6207 105.804 11.2653 106.202 11.0122C106.604 10.759 107.07 10.6325 107.602 10.6325C108.134 10.6325 108.599 10.759 108.998 11.0122C109.4 11.2653 109.712 11.6207 109.934 12.0784C110.159 12.536 110.272 13.0717 110.272 13.6853C110.272 14.2938 110.159 14.8257 109.934 15.2808C109.712 15.7359 109.4 16.09 108.998 16.3431C108.599 16.5963 108.134 16.7228 107.602 16.7228ZM107.602 15.9098C108.006 15.9098 108.339 15.8062 108.599 15.5991C108.86 15.392 109.053 15.1197 109.179 14.7822C109.304 14.4447 109.367 14.0791 109.367 13.6853C109.367 13.2916 109.304 12.9247 109.179 12.5846C109.053 12.2446 108.86 11.9697 108.599 11.76C108.339 11.5504 108.006 11.4456 107.602 11.4456C107.198 11.4456 106.866 11.5504 106.605 11.76C106.344 11.9697 106.151 12.2446 106.026 12.5846C105.901 12.9247 105.838 13.2916 105.838 13.6853C105.838 14.0791 105.901 14.4447 106.026 14.7822C106.151 15.1197 106.344 15.392 106.605 15.5991C106.866 15.8062 107.198 15.9098 107.602 15.9098ZM112.774 13.0563V16.6001H111.869V10.7092H112.744V11.6296H112.82C112.958 11.3305 113.168 11.0902 113.449 10.9086C113.731 10.7245 114.094 10.6325 114.539 10.6325C114.937 10.6325 115.286 10.7143 115.586 10.8779C115.885 11.039 116.117 11.2845 116.284 11.6143C116.45 11.9416 116.533 12.3558 116.533 12.8569V16.6001H115.628V12.9183C115.628 12.4555 115.508 12.095 115.267 11.8367C115.027 11.5759 114.697 11.4456 114.278 11.4456C113.989 11.4456 113.731 11.5082 113.503 11.6335C113.278 11.7588 113.1 11.9416 112.97 12.1819C112.84 12.4223 112.774 12.7137 112.774 13.0563ZM124.218 10.7092V11.4762H121.165V10.7092H124.218ZM122.055 9.29782H122.96V14.9126C122.96 15.1683 122.997 15.36 123.072 15.4879C123.148 15.6132 123.245 15.6975 123.363 15.741C123.483 15.7819 123.61 15.8024 123.743 15.8024C123.842 15.8024 123.924 15.7973 123.988 15.787C124.052 15.7742 124.103 15.764 124.142 15.7563L124.326 16.5694C124.264 16.5924 124.179 16.6154 124.069 16.6384C123.959 16.664 123.819 16.6768 123.651 16.6768C123.395 16.6768 123.144 16.6218 122.899 16.5119C122.656 16.4019 122.454 16.2345 122.293 16.0095C122.134 15.7845 122.055 15.5007 122.055 15.1581V9.29782ZM126.827 13.0563V16.6001H125.922V8.74555H126.827V11.6296H126.904C127.042 11.3254 127.249 11.0838 127.525 10.9048C127.804 10.7232 128.175 10.6325 128.638 10.6325C129.039 10.6325 129.391 10.713 129.692 10.8741C129.994 11.0326 130.228 11.2768 130.394 11.6066C130.563 11.9339 130.647 12.3507 130.647 12.8569V16.6001H129.742V12.9183C129.742 12.4504 129.621 12.0886 129.378 11.8329C129.138 11.5747 128.804 11.4456 128.377 11.4456C128.08 11.4456 127.814 11.5082 127.579 11.6335C127.346 11.7588 127.162 11.9416 127.027 12.1819C126.894 12.4223 126.827 12.7137 126.827 13.0563ZM134.989 16.7228C134.421 16.7228 133.932 16.5975 133.52 16.347C133.111 16.0938 132.795 15.741 132.573 15.2884C132.353 14.8333 132.243 14.3041 132.243 13.7007C132.243 13.0973 132.353 12.5654 132.573 12.1052C132.795 11.6424 133.105 11.2819 133.501 11.0237C133.9 10.7629 134.365 10.6325 134.897 10.6325C135.204 10.6325 135.507 10.6836 135.806 10.7859C136.105 10.8882 136.377 11.0544 136.623 11.2845C136.868 11.512 137.064 11.8137 137.21 12.1896C137.355 12.5654 137.428 13.0282 137.428 13.5779V13.9615H132.887V13.1791H136.508C136.508 12.8467 136.441 12.5501 136.308 12.2893C136.178 12.0285 135.991 11.8227 135.748 11.6718C135.508 11.521 135.224 11.4456 134.897 11.4456C134.537 11.4456 134.225 11.535 133.961 11.714C133.7 11.8904 133.5 12.1206 133.359 12.4044C133.219 12.6882 133.148 12.9924 133.148 13.3171V13.8387C133.148 14.2836 133.225 14.6608 133.378 14.9701C133.534 15.2769 133.75 15.5109 134.026 15.672C134.303 15.8305 134.623 15.9098 134.989 15.9098C135.227 15.9098 135.442 15.8765 135.633 15.81C135.828 15.741 135.995 15.6387 136.136 15.5032C136.276 15.3652 136.385 15.1938 136.462 14.9893L137.336 15.2348C137.244 15.5313 137.09 15.7921 136.872 16.0171C136.655 16.2396 136.386 16.4134 136.067 16.5387C135.747 16.6615 135.388 16.7228 134.989 16.7228Z" fill="#666666"/>
<path d="M68.8039 26.3721C71.5613 26.3721 73.3789 28.5518 73.3789 31.9186C73.3789 35.2948 71.5719 37.4639 68.8449 37.4639C67.4354 37.5377 66.1077 36.7994 65.4266 35.5631H65.375V40.9444H63.1449V26.4858H65.3035V28.2928H65.3445C66.0559 27.0643 67.385 26.3264 68.8039 26.3721ZM80.7617 26.3721C83.5191 26.3721 85.3367 28.5518 85.3367 31.9186C85.3367 35.2948 83.5297 37.4639 80.8027 37.4639C79.3932 37.5377 78.0655 36.7994 77.3844 35.5631H77.3328V40.9444H75.1027V26.4858H77.2613V28.2928H77.3023C78.0137 27.0643 79.3428 26.3264 80.7617 26.3721ZM96.7719 22.2002C99.9207 22.2002 102.079 23.9662 102.152 26.5373H99.9007C99.766 25.0502 98.5367 24.1525 96.7402 24.1525C94.9437 24.1525 93.7144 25.0608 93.7144 26.3826C93.7144 27.4361 94.4996 28.0561 96.4203 28.5306L98.0621 28.9338C101.119 29.6568 102.39 30.885 102.39 33.0646C102.39 35.8525 100.169 37.5986 96.6371 37.5986C93.3324 37.5986 91.1011 35.8935 90.957 33.1982L93.2398 33.1983C93.4051 34.676 94.8406 35.6463 96.8023 35.6463C98.682 35.6463 100.034 34.676 100.034 33.3436C100.034 32.1869 99.2187 31.4944 97.2875 31.0197L95.3563 30.5545C92.6199 29.8936 91.3496 28.6139 91.3496 26.5373C91.3496 23.9662 93.5902 22.2002 96.7719 22.2002ZM115.618 26.3522C118.768 26.3522 120.772 28.5002 120.772 31.9186C120.772 35.3464 118.779 37.485 115.618 37.485C112.459 37.485 110.465 35.3463 110.465 31.9186C110.465 28.5003 112.479 26.3522 115.618 26.3522ZM133.677 26.3522C136.682 26.3522 138.573 28.417 138.573 31.7112V32.4753H130.899V32.61C130.828 33.4189 131.107 34.2195 131.666 34.8083C132.225 35.397 133.01 35.7172 133.822 35.6874C134.904 35.7888 135.924 35.1673 136.331 34.1592L138.448 34.1592C138.148 36.1315 136.228 37.485 133.77 37.485C130.61 37.485 128.648 35.3674 128.648 31.9702C128.648 28.5624 130.62 26.3522 133.677 26.3522ZM107.203 23.9147V26.4858H109.269V28.2518H107.203V34.2413C107.203 35.1717 107.616 35.6053 108.525 35.6053C108.77 35.6011 109.015 35.5838 109.258 35.5537V37.3092C108.85 37.3855 108.435 37.42 108.02 37.4123C105.82 37.4123 104.962 36.5862 104.962 34.4791V28.2518H103.382V26.4858H104.962V23.9147H107.203ZM56.3797 22.4487L61.7597 37.3503H59.3129L57.95 33.3225H52.2699L50.9058 37.3503H48.5L53.8801 22.4487H56.3797ZM127.402 26.3721C127.659 26.3712 127.916 26.3991 128.166 26.4553V28.5413C127.842 28.4421 127.504 28.3966 127.164 28.4065C126.509 28.3799 125.874 28.6412 125.428 29.1218C124.981 29.6023 124.766 30.2541 124.841 30.9061V37.3502H122.611V26.4858H124.738V28.335H124.789C125.086 27.1446 126.176 26.3253 127.402 26.3721ZM115.618 28.1897C113.811 28.1897 112.738 29.5842 112.738 31.9186C112.738 34.2729 113.811 35.6464 115.618 35.6464C117.425 35.6464 118.5 34.2729 118.5 31.9186C118.5 29.5737 117.425 28.1897 115.618 28.1897ZM68.2156 28.2729C66.5117 28.2729 65.3656 29.7495 65.3656 31.9186C65.3656 34.1077 66.5117 35.5737 68.2156 35.5737C69.95 35.5737 71.0867 34.1382 71.0867 31.9186C71.0867 29.719 69.95 28.2729 68.2156 28.2729ZM80.1734 28.2729C78.4695 28.2729 77.3234 29.7495 77.3234 31.9186C77.3234 34.1077 78.4695 35.5737 80.1734 35.5737C81.9078 35.5737 83.0445 34.1382 83.0445 31.9186C83.0445 29.719 81.9078 28.2729 80.1734 28.2729ZM55.1411 24.9272H55.0789L52.8582 31.4639H57.3606L55.1411 24.9272ZM133.677 28.1592C132.943 28.1549 132.238 28.4437 131.719 28.9615C131.199 29.4793 130.908 30.1831 130.91 30.9167H136.341C136.382 30.1899 136.117 29.4791 135.611 28.9557C135.106 28.4323 134.404 28.1436 133.677 28.1592Z" fill="black"/>
</svg>
