<svg width="24" height="25" viewBox="0 0 24 25" fill="none" xmlns="http://www.w3.org/2000/svg">
<path d="M3.77762 12.4424C2.8296 10.7893 2.37185 9.43948 2.09584 8.07121C1.68762 6.04758 2.62181 4.07081 4.16938 2.80947C4.82345 2.27638 5.57323 2.45852 5.96 3.1524L6.83318 4.71891C7.52529 5.96057 7.87134 6.58139 7.8027 7.23959C7.73407 7.89779 7.26737 8.43386 6.33397 9.50601L3.77762 12.4424ZM3.77762 12.4424C5.69651 15.7883 8.70784 18.8013 12.0576 20.7224M12.0576 20.7224C13.7107 21.6704 15.0605 22.1282 16.4288 22.4042C18.4524 22.8124 20.4292 21.8782 21.6905 20.3306C22.2236 19.6766 22.0415 18.9268 21.3476 18.54L19.7811 17.6668C18.5394 16.9747 17.9186 16.6287 17.2604 16.6973C16.6022 16.7659 16.0661 17.2326 14.994 18.166L12.0576 20.7224Z" stroke="white" stroke-width="1.875" stroke-linejoin="round"/>
</svg>
