<svg width="36" height="36" viewBox="0 0 36 36" fill="none" xmlns="http://www.w3.org/2000/svg">
<rect width="36" height="36" rx="18" fill="#033E32"/>
<path d="M10.0833 17.9997C10.0833 14.2677 10.0833 12.4017 11.2426 11.2424C12.402 10.083 14.268 10.083 17.9999 10.083C21.7319 10.083 23.5979 10.083 24.7573 11.2424C25.9166 12.4017 25.9166 14.2677 25.9166 17.9997C25.9166 21.7316 25.9166 23.5976 24.7573 24.757C23.5979 25.9163 21.7319 25.9163 17.9999 25.9163C14.268 25.9163 12.402 25.9163 11.2426 24.757C10.0833 23.5976 10.0833 21.7316 10.0833 17.9997Z" stroke="#E6EEED" stroke-width="1.25" stroke-linejoin="round"/>
<path d="M16.7799 17.1727C16.0965 17.0762 14.5388 17.236 13.775 18.6483C13.0112 20.0606 13.781 21.5305 14.2614 22.0889C14.7358 22.6113 16.2435 23.6007 17.8428 22.6347C18.2392 22.3953 18.733 22.2167 19.2933 20.3459L19.2281 12.9844C19.12 13.795 20.0154 15.6963 22.5649 15.9212" stroke="#E6EEED" stroke-width="1.25" stroke-linecap="round" stroke-linejoin="round"/>
</svg>
