<svg width="36" height="36" viewBox="0 0 36 36" fill="none" xmlns="http://www.w3.org/2000/svg">
<rect width="36" height="36" rx="18" fill="#033E32"/>
<path d="M10.0833 17.9997C10.0833 14.2677 10.0833 12.4017 11.2427 11.2424C12.4021 10.083 14.268 10.083 18 10.083C21.7319 10.083 23.5979 10.083 24.7573 11.2424C25.9166 12.4017 25.9166 14.2677 25.9166 17.9997C25.9166 21.7316 25.9166 23.5976 24.7573 24.757C23.5979 25.9163 21.7319 25.9163 18 25.9163C14.268 25.9163 12.4021 25.9163 11.2427 24.757C10.0833 23.5976 10.0833 21.7316 10.0833 17.9997Z" stroke="#E6EEED" stroke-width="1.25" stroke-linejoin="round"/>
<path d="M21.7499 18C21.7499 20.0711 20.071 21.75 17.9999 21.75C15.9289 21.75 14.2499 20.0711 14.2499 18C14.2499 15.9289 15.9289 14.25 17.9999 14.25C20.071 14.25 21.7499 15.9289 21.7499 18Z" stroke="#E6EEED" stroke-width="1.25"/>
<path d="M22.5898 13.417H22.5823" stroke="#E6EEED" stroke-width="1.66667" stroke-linecap="round" stroke-linejoin="round"/>
</svg>
