<svg width="44" height="45" viewBox="0 0 44 45" fill="none" xmlns="http://www.w3.org/2000/svg">
<rect y="0.5" width="44" height="44" rx="22" fill="#045746"/>
<path d="M27 23.7308C27 23.7308 26.0909 23.2693 25.1818 23.2693C23.8182 23.2693 22 25.1154 22 27.8846C22 30.6537 24.4896 32.5 27 32.5C29.5104 32.5 32 30.6537 32 27.8846C32 25.1154 30.1818 23.2693 28.8182 23.2693C27.9091 23.2693 27 23.7308 27 23.7308ZM27 23.7308C27 22.3462 27.9091 20.5 29.7273 20.5" stroke="white" stroke-width="1.5" stroke-linecap="round" stroke-linejoin="round"/>
<path d="M20.655 15.5C21.5512 15.5 22.2778 14.8284 22.2778 14C22.2778 13.1716 21.5512 12.5 20.655 12.5H15.2456C14.3494 12.5 13.6228 13.1716 13.6228 14C13.6228 14.8284 14.3494 15.5 15.2456 15.5M21.1693 15.4231C22.1247 17.1894 22.9095 18.7834 23.3888 20.5C23.4279 20.6401 23.465 20.781 23.5 20.9229M20.428 32.5H16.3275C12.7472 32.5 12 31.8093 12 28.5V24.2771C12 20.8773 13.0976 18.3856 14.7047 15.4146" stroke="white" stroke-width="1.5" stroke-linecap="round" stroke-linejoin="round"/>
</svg>
