<svg width="36" height="36" viewBox="0 0 36 36" fill="none" xmlns="http://www.w3.org/2000/svg">
<rect width="36" height="36" rx="18" fill="#033E32"/>
<path d="M13.8333 16.3334V22.1667" stroke="#E6EEED" stroke-width="1.25" stroke-linecap="round" stroke-linejoin="round"/>
<path d="M17.1667 18.8334V22.1667M17.1667 18.8334C17.1667 17.4526 18.286 16.3334 19.6667 16.3334C21.0475 16.3334 22.1667 17.4526 22.1667 18.8334V22.1667M17.1667 18.8334V16.3334" stroke="#E6EEED" stroke-width="1.25" stroke-linecap="round" stroke-linejoin="round"/>
<path d="M13.84 13.8334H13.8325" stroke="#E6EEED" stroke-width="1.66667" stroke-linecap="round" stroke-linejoin="round"/>
<path d="M10.0833 18C10.0833 14.2681 10.0833 12.4021 11.2426 11.2427C12.402 10.0834 14.268 10.0834 17.9999 10.0834C21.7318 10.0834 23.5978 10.0834 24.7573 11.2427C25.9166 12.4021 25.9166 14.2681 25.9166 18C25.9166 21.732 25.9166 23.598 24.7573 24.7574C23.5978 25.9167 21.7318 25.9167 17.9999 25.9167C14.268 25.9167 12.402 25.9167 11.2426 24.7574C10.0833 23.598 10.0833 21.732 10.0833 18Z" stroke="#E6EEED" stroke-width="1.25" stroke-linejoin="round"/>
</svg>
