<svg width="36" height="36" viewBox="0 0 36 36" fill="none" xmlns="http://www.w3.org/2000/svg">
<rect width="36" height="36" rx="18" fill="#033E32"/>
<rect width="20" height="20" transform="translate(8 8)" fill="#033E32"/>
<path d="M10.0834 17.9997C10.0834 14.2677 10.0834 12.4017 11.2427 11.2424C12.4021 10.083 14.2681 10.083 18 10.083C21.732 10.083 23.598 10.083 24.7574 11.2424C25.9167 12.4017 25.9167 14.2677 25.9167 17.9997C25.9167 21.7316 25.9167 23.5976 24.7574 24.757C23.598 25.9163 21.732 25.9163 18 25.9163C14.2681 25.9163 12.4021 25.9163 11.2427 24.757C10.0834 23.5976 10.0834 21.7316 10.0834 17.9997Z" stroke="#E6EEED" stroke-width="1.25" stroke-linejoin="round"/>
<path d="M22.1055 14.6885H19.6514C18.7816 14.6885 18.0746 15.3902 18.0682 16.2601L17.9971 25.8555M16.4017 19.6679H20.404" stroke="#E6EEED" stroke-width="1.25" stroke-linecap="round" stroke-linejoin="round"/>
</svg>
