<svg width="36" height="36" viewBox="0 0 36 36" fill="none" xmlns="http://www.w3.org/2000/svg">
<rect width="36" height="36" rx="18" fill="#033E32"/>
<path d="M10.0834 17.9997C10.0834 14.2677 10.0834 12.4017 11.2428 11.2424C12.4022 10.083 14.2682 10.083 18.0001 10.083C21.7321 10.083 23.598 10.083 24.7574 11.2424C25.9168 12.4017 25.9168 14.2677 25.9168 17.9997C25.9168 21.7316 25.9168 23.5976 24.7574 24.757C23.598 25.9163 21.7321 25.9163 18.0001 25.9163C14.2682 25.9163 12.4022 25.9163 11.2428 24.757C10.0834 23.5976 10.0834 21.7316 10.0834 17.9997Z" stroke="#E6EEED" stroke-width="1.25" stroke-linecap="round" stroke-linejoin="round"/>
<path d="M13.8334 22.1663L17.3281 18.6718M17.3281 18.6718L13.8334 13.833H16.1483L18.6722 17.3276M17.3281 18.6718L19.8519 22.1663H22.1668L18.6722 17.3276M22.1668 13.833L18.6722 17.3276" stroke="#E6EEED" stroke-width="1.25" stroke-linecap="round" stroke-linejoin="round"/>
</svg>
