<svg width="36" height="36" viewBox="0 0 36 36" fill="none" xmlns="http://www.w3.org/2000/svg">
<rect width="36" height="36" rx="18" fill="#033E32"/>
<path d="M13.4797 14.187C13.4797 11.6905 15.5035 9.66663 18.0001 9.66663C20.4966 9.66663 22.5204 11.6905 22.5204 14.187C22.5204 18.1435 22.7177 20.1213 26.3334 21.7036C24.4816 22.1666 24.0186 22.6296 23.5557 24.4815C20.3149 24.4815 19.8519 26.3333 18.0001 26.3333C16.1482 26.3333 15.6853 24.4815 12.4445 24.4815C11.9816 22.6296 11.5186 22.1666 9.66675 21.7036C13.2825 20.1213 13.4797 18.1435 13.4797 14.187Z" stroke="#E6EEED" stroke-width="1.25" stroke-linecap="round" stroke-linejoin="round"/>
<path d="M9.66675 21.3333C12.853 19.5976 12.853 17.9586 10.4633 15.5" stroke="#E6EEED" stroke-width="1.25" stroke-linecap="round"/>
<path d="M26.3333 21.3333C23.1469 19.5976 23.1469 17.9586 25.5367 15.5" stroke="#E6EEED" stroke-width="1.25" stroke-linecap="round"/>
</svg>
