<svg width="44" height="45" viewBox="0 0 44 45" fill="none" xmlns="http://www.w3.org/2000/svg">
<rect y="0.5" width="44" height="44" rx="22" fill="#045746"/>
<path d="M15.0586 22.2421C16.9771 22.4781 18.7311 21.0535 18.9763 19.0602C19.2214 17.0669 16.9389 15.1458 17.768 12.5C13.6648 13.0945 12.2506 16.4011 12.0286 18.2057C11.7835 20.199 13.14 22.0062 15.0586 22.2421Z" stroke="white" stroke-width="1.5" stroke-linejoin="round"/>
<path d="M17 30.5C15.0754 25.8242 14.7699 21.6941 15.1328 18.5" stroke="white" stroke-width="1.5" stroke-linecap="round" stroke-linejoin="round"/>
<path d="M19.5079 28.1681C20.6828 30.5602 23.5206 31.2199 25.8463 29.6415C28.172 28.0631 28.5378 23.6898 32 22.1651C28.3054 18.0725 23.6971 19.55 21.5916 20.9789C19.2659 22.5573 18.333 25.776 19.5079 28.1681Z" stroke="white" stroke-width="1.5" stroke-linejoin="round"/>
<path d="M16 32.5C18.3778 28.4044 21.2644 25.93 24 24.5" stroke="white" stroke-width="1.5" stroke-linecap="round" stroke-linejoin="round"/>
</svg>
