<svg width="157" height="48" viewBox="0 0 157 48" fill="none" xmlns="http://www.w3.org/2000/svg">
<rect x="1.1" y="0.6" width="154.8" height="46.8" rx="6.6" fill="white"/>
<rect x="1.1" y="0.6" width="154.8" height="46.8" rx="6.6" stroke="#A6A6A6" stroke-width="1.2"/>
<path fill-rule="evenodd" clip-rule="evenodd" d="M11.822 9.05661C11.4728 9.42621 11.2676 9.99861 11.2676 10.7414V37.259C11.2676 38.0018 11.4728 38.5742 11.822 38.9438L11.9108 39.0302L26.7656 24.1754V23.825L11.9108 8.97021L11.822 9.05661Z" fill="#00D7FE"/>
<mask id="mask0_577_803" style="mask-type:alpha" maskUnits="userSpaceOnUse" x="26" y="18" width="13" height="12">
<path d="M31.7156 29.129L26.7656 24.1754V23.825L31.718 18.8726L37.6964 22.2686C39.3716 23.2214 39.3716 24.779 37.6964 25.7306L31.8296 29.0642L31.7156 29.129Z" fill="white"/>
</mask>
<g mask="url(#mask0_577_803)">
<path fill-rule="evenodd" clip-rule="evenodd" d="M31.7156 29.129L26.7656 24.1754V23.825L31.718 18.8726L37.6964 22.2686C39.3716 23.2214 39.3716 24.779 37.6964 25.7306L31.8296 29.0642L31.7156 29.129Z" fill="url(#paint0_linear_577_803)"/>
</g>
<mask id="mask1_577_803" style="mask-type:alpha" maskUnits="userSpaceOnUse" x="11" y="24" width="21" height="16">
<path d="M31.8296 29.064L26.7656 24L11.822 38.9436C12.3752 39.528 13.2872 39.6 14.3144 39.0168L31.8296 29.064Z" fill="white"/>
</mask>
<g mask="url(#mask1_577_803)">
<path fill-rule="evenodd" clip-rule="evenodd" d="M31.8296 29.064L26.7656 24L11.822 38.9436C12.3752 39.528 13.2872 39.6 14.3144 39.0168L31.8296 29.064Z" fill="url(#paint1_linear_577_803)"/>
</g>
<mask id="mask2_577_803" style="mask-type:alpha" maskUnits="userSpaceOnUse" x="11" y="8" width="21" height="17">
<path d="M31.8296 18.9363L14.3144 8.9835C13.2872 8.40031 12.3752 8.47231 11.822 9.0567L26.7656 24.0003L31.8296 18.9363Z" fill="white"/>
</mask>
<g mask="url(#mask2_577_803)">
<path fill-rule="evenodd" clip-rule="evenodd" d="M31.8296 18.9363L14.3144 8.9835C13.2872 8.40031 12.3752 8.47231 11.822 9.0567L26.7656 24.0003L31.8296 18.9363Z" fill="url(#paint2_linear_577_803)"/>
</g>
<path fill-rule="evenodd" clip-rule="evenodd" d="M125.173 37.1437H127.412V22.1425H125.173V37.1437ZM145.341 27.5461L142.774 34.0501H142.698L140.034 27.5461H137.622L141.616 36.6361L139.339 41.6929H141.675L147.831 27.5461H145.341ZM132.643 35.4397C131.908 35.4397 130.886 35.0737 130.886 34.1665C130.886 33.0085 132.16 32.5645 133.26 32.5645C134.245 32.5645 134.707 32.7769 135.306 33.0661C135.132 34.4557 133.935 35.4397 132.643 35.4397ZM132.913 27.2185C131.292 27.2185 129.613 27.9325 128.918 29.5153L130.905 30.3445C131.33 29.5153 132.121 29.2441 132.951 29.2441C134.109 29.2441 135.286 29.9389 135.306 31.1749V31.3285C134.9 31.0969 134.032 30.7501 132.97 30.7501C130.828 30.7501 128.647 31.9273 128.647 34.1269C128.647 36.1345 130.404 37.4281 132.372 37.4281C133.878 37.4281 134.707 36.7525 135.229 35.9605H135.306V37.1185H137.467V31.3681C137.467 28.7041 135.48 27.2185 132.913 27.2185ZM119.074 29.3725H115.89V24.2305H119.074C120.748 24.2305 121.699 25.6165 121.699 26.8009C121.699 27.9637 120.748 29.3725 119.074 29.3725ZM119.017 22.1425H113.652V37.1437H115.89V31.4605H119.017C121.498 31.4605 123.938 29.6629 123.938 26.8009C123.938 23.9389 121.498 22.1425 119.017 22.1425ZM89.7596 35.4421C88.2128 35.4421 86.918 34.1473 86.918 32.3689C86.918 30.5713 88.2128 29.2561 89.7596 29.2561C91.2872 29.2561 92.4848 30.5713 92.4848 32.3689C92.4848 34.1473 91.2872 35.4421 89.7596 35.4421ZM92.33 28.3861H92.2532C91.7504 27.7873 90.7844 27.2461 89.5664 27.2461C87.014 27.2461 84.6752 29.4877 84.6752 32.3689C84.6752 35.2297 87.014 37.4533 89.5664 37.4533C90.7844 37.4533 91.7504 36.9121 92.2532 36.2929H92.33V37.0273C92.33 38.9809 91.2872 40.0249 89.6048 40.0249C88.232 40.0249 87.3812 39.0385 87.0332 38.2069L85.0808 39.0193C85.6412 40.3729 87.1304 42.0349 89.6048 42.0349C92.234 42.0349 94.4576 40.4881 94.4576 36.7189V27.5545H92.33V28.3861ZM96.0044 37.1437H98.2472V22.1413H96.0044V37.1437ZM101.552 32.1949C101.494 30.2233 103.08 29.2177 104.22 29.2177C105.11 29.2177 105.864 29.6617 106.114 30.3001L101.552 32.1949ZM108.512 30.4933C108.087 29.3533 106.791 27.2461 104.143 27.2461C101.514 27.2461 99.3296 29.3137 99.3296 32.3497C99.3296 35.2105 101.494 37.4533 104.394 37.4533C106.734 37.4533 108.087 36.0229 108.648 35.1913L106.908 34.0309C106.328 34.8817 105.535 35.4421 104.394 35.4421C103.254 35.4421 102.441 34.9201 101.919 33.8965L108.744 31.0741L108.512 30.4933ZM54.1424 28.8121V30.9769H59.3228C59.168 32.1949 58.7624 33.0841 58.1444 33.7033C57.3896 34.4569 56.21 35.2873 54.1424 35.2873C50.9528 35.2873 48.458 32.7169 48.458 29.5273C48.458 26.3365 50.9528 23.7661 54.1424 23.7661C55.8632 23.7661 57.1196 24.4429 58.0472 25.3129L59.5748 23.7853C58.2788 22.5481 56.5592 21.6001 54.1424 21.6001C49.7732 21.6001 46.1 25.1581 46.1 29.5273C46.1 33.8965 49.7732 37.4533 54.1424 37.4533C56.5004 37.4533 58.2788 36.6805 59.6708 35.2297C61.1012 33.7993 61.5464 31.7893 61.5464 30.1645C61.5464 29.6617 61.508 29.1985 61.43 28.8121H54.1424ZM67.4372 35.4421C65.8904 35.4421 64.556 34.1665 64.556 32.3497C64.556 30.5125 65.8904 29.2561 67.4372 29.2561C68.9828 29.2561 70.3172 30.5125 70.3172 32.3497C70.3172 34.1665 68.9828 35.4421 67.4372 35.4421ZM67.4372 27.2461C64.6136 27.2461 62.3132 29.3917 62.3132 32.3497C62.3132 35.2873 64.6136 37.4533 67.4372 37.4533C70.2596 37.4533 72.56 35.2873 72.56 32.3497C72.56 29.3917 70.2596 27.2461 67.4372 27.2461ZM78.6128 35.4421C77.066 35.4421 75.7316 34.1665 75.7316 32.3497C75.7316 30.5125 77.066 29.2561 78.6128 29.2561C80.1596 29.2561 81.4928 30.5125 81.4928 32.3497C81.4928 34.1665 80.1596 35.4421 78.6128 35.4421ZM78.6128 27.2461C75.7904 27.2461 73.49 29.3917 73.49 32.3497C73.49 35.2873 75.7904 37.4533 78.6128 37.4533C81.4352 37.4533 83.7356 35.2873 83.7356 32.3497C83.7356 29.3917 81.4352 27.2461 78.6128 27.2461Z" fill="black"/>
<path d="M52.6654 12.1768V14.9875C52.5705 15.1281 52.4193 15.2863 52.2119 15.4621C52.0045 15.6344 51.7179 15.7855 51.3523 15.9156C50.9902 16.0422 50.5226 16.1055 49.9496 16.1055C49.482 16.1055 49.0513 16.0246 48.6576 15.8629C48.2674 15.6977 47.9281 15.4586 47.6398 15.1457C47.355 14.8293 47.1336 14.4461 46.9754 13.9961C46.8207 13.5426 46.7433 13.0293 46.7433 12.4562V11.8604C46.7433 11.2873 46.8101 10.7758 46.9437 10.3258C47.0808 9.87578 47.2812 9.49433 47.5449 9.18144C47.8086 8.86504 48.132 8.62598 48.5152 8.46426C48.8984 8.29902 49.3379 8.2164 49.8336 8.2164C50.4207 8.2164 50.9111 8.31836 51.3049 8.52226C51.7021 8.72265 52.0115 9.00039 52.233 9.35547C52.458 9.71055 52.6021 10.1148 52.6654 10.5684H51.6476C51.6019 10.2906 51.5105 10.0375 51.3734 9.80898C51.2398 9.58047 51.0482 9.39765 50.7986 9.26055C50.549 9.11992 50.2273 9.04961 49.8336 9.04961C49.4785 9.04961 49.1709 9.11465 48.9107 9.24473C48.6506 9.3748 48.4361 9.56113 48.2674 9.80371C48.0986 10.0463 47.972 10.3398 47.8877 10.6844C47.8068 11.0289 47.7664 11.4174 47.7664 11.8498V12.4562C47.7664 12.8992 47.8174 13.2947 47.9193 13.6428C48.0248 13.9908 48.1742 14.2879 48.3675 14.534C48.5609 14.7766 48.7912 14.9611 49.0584 15.0877C49.3291 15.2143 49.6279 15.2775 49.9549 15.2775C50.317 15.2775 50.6105 15.2477 50.8355 15.1879C51.0605 15.1246 51.2363 15.0508 51.3629 14.9664C51.4894 14.8785 51.5861 14.7959 51.6529 14.7186V12.9994H49.8757V12.1768H52.6654ZM58.9068 15.1721V16H54.841V15.1721H58.9068ZM55.0467 8.32187V16H54.0289V8.32187H55.0467ZM58.3689 11.623V12.451H54.841V11.623H58.3689ZM58.8541 8.32187V9.15508H54.841V8.32187H58.8541ZM62.7858 8.32187V16H61.7838V8.32187H62.7858ZM65.2537 8.32187V9.15508H59.3211V8.32187H65.2537ZM69.3044 8.32187V16H68.2866V8.32187H69.3044ZM73.5102 8.32187V16H72.5083V8.32187H73.5102ZM75.9782 8.32187V9.15508H70.0456V8.32187H75.9782ZM84.8488 11.9184V12.4035C84.8488 12.9801 84.7767 13.4969 84.6326 13.9539C84.4884 14.4109 84.281 14.7994 84.0103 15.1193C83.7396 15.4393 83.4144 15.6836 83.0347 15.8523C82.6585 16.0211 82.2367 16.1055 81.7691 16.1055C81.3156 16.1055 80.899 16.0211 80.5193 15.8523C80.1431 15.6836 79.8162 15.4393 79.5384 15.1193C79.2642 14.7994 79.0515 14.4109 78.9003 13.9539C78.7492 13.4969 78.6736 12.9801 78.6736 12.4035V11.9184C78.6736 11.3418 78.7474 10.8268 78.8951 10.3732C79.0462 9.91621 79.2589 9.52773 79.5331 9.20781C79.8074 8.88437 80.1326 8.63828 80.5087 8.46953C80.8884 8.30078 81.305 8.2164 81.7585 8.2164C82.2261 8.2164 82.648 8.30078 83.0242 8.46953C83.4038 8.63828 83.729 8.88437 83.9997 9.20781C84.274 9.52773 84.4831 9.91621 84.6273 10.3732C84.7749 10.8268 84.8488 11.3418 84.8488 11.9184ZM83.8415 12.4035V11.9078C83.8415 11.4508 83.7941 11.0465 83.6992 10.6949C83.6078 10.3434 83.4724 10.048 83.2931 9.80898C83.1138 9.56992 82.8941 9.38887 82.6339 9.26582C82.3773 9.14277 82.0855 9.08125 81.7585 9.08125C81.4421 9.08125 81.1556 9.14277 80.899 9.26582C80.6458 9.38887 80.4279 9.56992 80.2451 9.80898C80.0658 10.048 79.9269 10.3434 79.8285 10.6949C79.73 11.0465 79.6808 11.4508 79.6808 11.9078V12.4035C79.6808 12.8641 79.73 13.2719 79.8285 13.627C79.9269 13.9785 80.0675 14.2756 80.2503 14.5182C80.4367 14.7572 80.6564 14.9383 80.9095 15.0613C81.1662 15.1844 81.4527 15.2459 81.7691 15.2459C82.0996 15.2459 82.3931 15.1844 82.6497 15.0613C82.9064 14.9383 83.1226 14.7572 83.2984 14.5182C83.4777 14.2756 83.613 13.9785 83.7044 13.627C83.7958 13.2719 83.8415 12.8641 83.8415 12.4035ZM91.955 8.32187V16H90.932L87.0666 10.0779V16H86.0488V8.32187H87.0666L90.9478 14.2598V8.32187H91.955Z" fill="#666666"/>
<defs>
<linearGradient id="paint0_linear_577_803" x1="36.6065" y1="24.0005" x2="26.7656" y2="24.0005" gradientUnits="userSpaceOnUse">
<stop stop-color="#FFBC00"/>
<stop offset="1" stop-color="#FFDA03"/>
</linearGradient>
<linearGradient id="paint1_linear_577_803" x1="29.0775" y1="28.765" x2="16.2333" y2="39.352" gradientUnits="userSpaceOnUse">
<stop stop-color="#E22652"/>
<stop offset="1" stop-color="#FF3A44"/>
</linearGradient>
<linearGradient id="paint2_linear_577_803" x1="14.0848" y1="10.8557" x2="22.6482" y2="18.3856" gradientUnits="userSpaceOnUse">
<stop stop-color="#0ED574"/>
<stop offset="1" stop-color="#07F076"/>
</linearGradient>
</defs>
</svg>
