<svg width="24" height="25" viewBox="0 0 24 25" fill="none" xmlns="http://www.w3.org/2000/svg">
<path d="M15.5 11.5C15.5 13.433 13.933 15 12 15C10.067 15 8.5 13.433 8.5 11.5C8.5 9.567 10.067 8 12 8C13.933 8 15.5 9.567 15.5 11.5Z" stroke="white" stroke-width="1.875"/>
<path d="M12 2.5C16.8706 2.5 21 6.53298 21 11.4258C21 16.3965 16.8033 19.8847 12.927 22.2567C12.6445 22.4162 12.325 22.5 12 22.5C11.675 22.5 11.3555 22.4162 11.073 22.2567C7.2039 19.8616 3 16.4137 3 11.4258C3 6.53298 7.12944 2.5 12 2.5Z" stroke="white" stroke-width="1.875"/>
</svg>
