<svg width="44" height="52" viewBox="0 0 44 52" fill="none" xmlns="http://www.w3.org/2000/svg">
<g filter="url(#filter0_ddd_679_2783)">
<rect x="10" y="2" width="24" height="24" rx="12" fill="white"/>
<path d="M26.3386 13.7603V17.9274C26.3386 19.2143 25.2474 20.2744 23.9035 20.2551C23.194 20.2449 22.6305 19.9997 22.2139 19.5165C21.7253 20.0089 21.0201 20.2551 20.0928 20.2551C18.1768 20.2551 17.2199 19.3018 17.2199 17.3953V13.7603C17.2199 13.5059 17.4335 13.3014 17.6989 13.3014H19.0946C19.3579 13.3014 19.5726 13.5059 19.5726 13.7603V17.7341C19.5726 18.0087 19.8062 18.2315 20.0938 18.2315C20.3814 18.2315 20.6141 18.0077 20.6141 17.7341V13.7603C20.6141 13.5059 20.8276 13.3014 21.092 13.3014H22.4877C22.7531 13.3014 22.9667 13.5059 22.9667 13.7603V17.7432C22.9667 18.0138 23.1951 18.2326 23.4763 18.2326C23.7576 18.2326 23.9871 18.0138 23.9871 17.7432V13.7603C23.9871 13.5059 24.2006 13.3014 24.466 13.3014H25.8597C26.1229 13.3014 26.3376 13.5059 26.3376 13.7603H26.3386Z" fill="#005645"/>
<path d="M23.029 10.6838C23.029 10.6838 22.9804 10.7926 22.8704 11.0297C22.4972 11.8283 21.775 11.3349 21.2833 11.3044C20.7916 11.2738 20.7821 11.9026 20.5928 12.1447C20.1879 12.6615 19.7755 12.1447 19.3473 12.0684C18.919 11.9921 19.1411 12.511 18.7128 12.7633C18.2095 13.0593 17.721 12.633 17.8902 12.3522C18.0213 12.1335 18.3893 11.8314 17.7126 11.7632C17.554 11.7469 17.1797 11.6543 17.2008 11.1619C17.222 10.6838 18.0456 10.6838 18.0456 10.6838H19.8537C19.5027 10.871 19.1051 11.2006 18.7795 11.7896C18.7795 11.7896 19.2828 10.9839 20.5283 10.6838H23.029ZM26.0711 10.6838H23.6455C23.9627 10.9188 24.2883 11.2749 24.5009 11.8141C24.5009 11.8141 24.1139 11.0816 23.1337 10.7021C23.1062 10.8252 22.9222 11.5719 22.4961 11.6869C22.0319 11.813 21.7517 11.636 21.591 11.5902C21.5244 11.5709 21.4504 11.5445 21.3764 11.5272C21.2347 11.4946 21.1194 11.637 21.1807 11.7642C21.333 12.0776 21.6925 12.6402 22.2751 12.5069C23.0724 12.3238 23.2828 11.5791 23.9257 11.9382C24.3232 12.16 24.7747 12.8619 25.0602 12.4957C25.3457 12.1294 24.5548 11.2118 25.5678 11.5414C26.0277 11.691 26.1842 11.1436 26.2085 10.8242C26.2138 10.7479 26.1504 10.6838 26.0711 10.6838Z" fill="#005645"/>
<path d="M24.2048 8C23.8337 8 23.4414 8.06308 23.1802 8.21975C23.0142 8.31945 22.5543 8.64704 22.2191 9.29713C22.2191 9.29713 22.2772 8.63178 22.8091 8.12717C22.5648 8.04578 22.2994 8 22.0213 8C21.5265 8 21.0697 8.14141 20.7039 8.37846C20.4173 8.5921 20.2196 8.82406 19.9838 9.3012C19.9838 9.3012 20.0335 8.72944 20.4649 8.24417C20.1466 8.08953 19.7797 8 19.3874 8C18.181 8 17.2029 8.83728 17.2029 9.87092C17.2029 10.3216 18.181 10.227 19.3874 10.227H24.2069C25.4134 10.227 26.3914 10.227 26.3914 9.87092C26.3914 8.83728 25.4134 8 24.2069 8H24.2048Z" fill="#C68343"/>
</g>
<defs>
<filter id="filter0_ddd_679_2783" x="0" y="0" width="44" height="52" filterUnits="userSpaceOnUse" color-interpolation-filters="sRGB">
<feFlood flood-opacity="0" result="BackgroundImageFix"/>
<feColorMatrix in="SourceAlpha" type="matrix" values="0 0 0 0 0 0 0 0 0 0 0 0 0 0 0 0 0 0 127 0" result="hardAlpha"/>
<feOffset dy="2"/>
<feGaussianBlur stdDeviation="2"/>
<feColorMatrix type="matrix" values="0 0 0 0 0 0 0 0 0 0 0 0 0 0 0 0 0 0 0.02 0"/>
<feBlend mode="normal" in2="BackgroundImageFix" result="effect1_dropShadow_679_2783"/>
<feColorMatrix in="SourceAlpha" type="matrix" values="0 0 0 0 0 0 0 0 0 0 0 0 0 0 0 0 0 0 127 0" result="hardAlpha"/>
<feOffset dy="7"/>
<feGaussianBlur stdDeviation="3.5"/>
<feColorMatrix type="matrix" values="0 0 0 0 0 0 0 0 0 0 0 0 0 0 0 0 0 0 0.02 0"/>
<feBlend mode="normal" in2="effect1_dropShadow_679_2783" result="effect2_dropShadow_679_2783"/>
<feColorMatrix in="SourceAlpha" type="matrix" values="0 0 0 0 0 0 0 0 0 0 0 0 0 0 0 0 0 0 127 0" result="hardAlpha"/>
<feOffset dy="16"/>
<feGaussianBlur stdDeviation="5"/>
<feColorMatrix type="matrix" values="0 0 0 0 0 0 0 0 0 0 0 0 0 0 0 0 0 0 0.01 0"/>
<feBlend mode="normal" in2="effect2_dropShadow_679_2783" result="effect3_dropShadow_679_2783"/>
<feBlend mode="normal" in="SourceGraphic" in2="effect3_dropShadow_679_2783" result="shape"/>
</filter>
</defs>
</svg>
