<svg width="66" height="84" viewBox="0 0 66 84" fill="none" xmlns="http://www.w3.org/2000/svg">
<g filter="url(#filter0_ddd_679_2786)">
<rect x="10" y="2" width="46" height="46.4182" rx="23" fill="white"/>
<path d="M42.1966 24.0042V32.0637C42.1966 34.5528 40.1051 36.6031 37.5293 36.5657C36.1694 36.546 35.0893 36.0718 34.2908 35.1372C33.3545 36.0895 32.0027 36.5657 30.2254 36.5657C26.5531 36.5657 24.719 34.722 24.719 31.0346V24.0042C24.719 23.5122 25.1284 23.1167 25.6371 23.1167H28.3122C28.8169 23.1167 29.2283 23.5122 29.2283 24.0042V31.6898C29.2283 32.2211 29.6762 32.652 30.2274 32.652C30.7786 32.652 31.2245 32.2191 31.2245 31.6898V24.0042C31.2245 23.5122 31.6339 23.1167 32.1405 23.1167H34.8157C35.3243 23.1167 35.7337 23.5122 35.7337 24.0042V31.7075C35.7337 32.2309 36.1715 32.654 36.7105 32.654C37.2496 32.654 37.6894 32.2309 37.6894 31.7075V24.0042C37.6894 23.5122 38.0988 23.1167 38.6075 23.1167H41.2785C41.7832 23.1167 42.1946 23.5122 42.1946 24.0042H42.1966Z" fill="#005645"/>
<path d="M35.8532 18.054C35.8532 18.054 35.7599 18.2645 35.5492 18.723C34.8338 20.2676 33.4496 19.3133 32.5072 19.2542C31.5648 19.1952 31.5466 20.4112 31.1838 20.8795C30.4076 21.8791 29.6173 20.8795 28.7965 20.7319C27.9757 20.5844 28.4013 21.5879 27.5805 22.0759C26.6158 22.6484 25.6795 21.824 26.0038 21.2809C26.2551 20.8579 26.9604 20.2735 25.6633 20.1417C25.3593 20.1102 24.6419 19.9311 24.6824 18.9788C24.723 18.054 26.3017 18.054 26.3017 18.054H29.7672C29.0944 18.416 28.3324 19.0535 27.7082 20.1928C27.7082 20.1928 28.6728 18.6344 31.0602 18.054H35.8532ZM41.6837 18.054H37.0347C37.6427 18.5085 38.2669 19.1972 38.6742 20.24C38.6742 20.24 37.9325 18.8233 36.0538 18.0894C36.0011 18.3275 35.6485 19.7717 34.8317 19.9941C33.9421 20.2381 33.405 19.8957 33.097 19.8071C32.9693 19.7698 32.8274 19.7186 32.6856 19.6852C32.414 19.6222 32.1931 19.8977 32.3106 20.1436C32.6025 20.7497 33.2915 21.8378 34.4082 21.58C35.9363 21.2258 36.3395 19.7855 37.5717 20.4801C38.3337 20.909 39.1991 22.2667 39.7463 21.5584C40.2935 20.85 38.7776 19.0752 40.7191 19.7127C41.6007 20.0019 41.9006 18.9433 41.9472 18.3255C41.9573 18.1779 41.8357 18.054 41.6837 18.054Z" fill="#005645"/>
<path d="M38.1068 12.8633C37.3954 12.8633 36.6435 12.9853 36.143 13.2883C35.8248 13.4811 34.9432 14.1147 34.3008 15.372C34.3008 15.372 34.4122 14.0852 35.4316 13.1092C34.9635 12.9518 34.4548 12.8633 33.9218 12.8633C32.9733 12.8633 32.0978 13.1368 31.3966 13.5953C30.8474 14.0085 30.4684 14.4571 30.0165 15.3799C30.0165 15.3799 30.1117 14.2741 30.9386 13.3355C30.3286 13.0364 29.6254 12.8633 28.8735 12.8633C26.5611 12.8633 24.6865 14.4827 24.6865 16.4818C24.6865 17.3535 26.5611 17.1705 28.8735 17.1705H38.1108C40.4232 17.1705 42.2978 17.1705 42.2978 16.4818C42.2978 14.4827 40.4232 12.8633 38.1108 12.8633H38.1068Z" fill="#C68343"/>
<path d="M33.8677 57.483C33.4837 58.1541 32.5158 58.1541 32.1318 57.483L24.9563 44.9416C24.5748 44.2749 25.0562 43.445 25.8242 43.445L40.1753 43.445C40.9434 43.445 41.4247 44.2749 41.0433 44.9416L33.8677 57.483Z" fill="white"/>
</g>
<defs>
<filter id="filter0_ddd_679_2786" x="0" y="0" width="66" height="85" filterUnits="userSpaceOnUse" color-interpolation-filters="sRGB">
<feFlood flood-opacity="0" result="BackgroundImageFix"/>
<feColorMatrix in="SourceAlpha" type="matrix" values="0 0 0 0 0 0 0 0 0 0 0 0 0 0 0 0 0 0 127 0" result="hardAlpha"/>
<feOffset dy="2"/>
<feGaussianBlur stdDeviation="2"/>
<feColorMatrix type="matrix" values="0 0 0 0 0 0 0 0 0 0 0 0 0 0 0 0 0 0 0.02 0"/>
<feBlend mode="normal" in2="BackgroundImageFix" result="effect1_dropShadow_679_2786"/>
<feColorMatrix in="SourceAlpha" type="matrix" values="0 0 0 0 0 0 0 0 0 0 0 0 0 0 0 0 0 0 127 0" result="hardAlpha"/>
<feOffset dy="7"/>
<feGaussianBlur stdDeviation="3.5"/>
<feColorMatrix type="matrix" values="0 0 0 0 0 0 0 0 0 0 0 0 0 0 0 0 0 0 0.02 0"/>
<feBlend mode="normal" in2="effect1_dropShadow_679_2786" result="effect2_dropShadow_679_2786"/>
<feColorMatrix in="SourceAlpha" type="matrix" values="0 0 0 0 0 0 0 0 0 0 0 0 0 0 0 0 0 0 127 0" result="hardAlpha"/>
<feOffset dy="16"/>
<feGaussianBlur stdDeviation="5"/>
<feColorMatrix type="matrix" values="0 0 0 0 0 0 0 0 0 0 0 0 0 0 0 0 0 0 0.01 0"/>
<feBlend mode="normal" in2="effect2_dropShadow_679_2786" result="effect3_dropShadow_679_2786"/>
<feBlend mode="normal" in="SourceGraphic" in2="effect3_dropShadow_679_2786" result="shape"/>
</filter>
</defs>
</svg>
